<?xml version="1.0" encoding="UTF-8"?>
<svg xmlns="http://www.w3.org/2000/svg" viewBox="0 0 500 500" width="500" height="500">
  <path d="M214.67 256.02C198.68 256.03 182.7 256.04 166.71 256.05C165.53 257.59 166.15 259.92 166.13 261.87C166.1 266.89 166.02 271.92 166.02 276.94C166.01 284.55 165.92 292.17 166.01 299.77C166.23 317.49 165.4 326.71 149.22 336.22C145.58 338.36 140.62 340.72 136.3 340.69C136.19 331.39 136.07 322.09 135.95 312.79C135.96 267.28 135.96 221.77 135.96 176.26C137.38 157.67 149.53 151.3 165.53 146.42C167.44 150.62 166.13 161.09 166.01 165.98C165.68 179.66 166.02 193.39 166.01 207.08C166.01 211.9 165.05 222.3 166.44 226.42C170.79 227.64 176.52 226.73 181.05 226.73C191.4 226.72 201.75 226.68 212.1 226.74C215.8 226.76 227.06 227.67 229.91 226.53C233.13 225.23 236.79 218.7 239.86 216.36C242.88 214.06 245.76 211.57 248.72 209.22C250.05 208.16 252.99 207.23 253.66 205.55C254.6 203.21 253.82 199.1 253.83 196.58C253.84 189.32 253.36 181.89 253.93 174.66C255.22 158.23 269.19 150.23 283.33 146.47C284.86 149.02 283.94 163.46 283.93 167.35C283.91 179.98 283.87 192.62 283.92 205.25C283.95 211.02 284.44 217.09 283.79 222.81C281.57 224.13 278.81 224.47 276.4 225.45C269.18 228.43 261.65 233.47 256.46 239.34C250.43 246.16 244.89 255.67 243.09 264.69C239.06 284.97 246.35 308.89 263.98 320.72C271.42 325.71 279.44 329.66 288.35 331.17C293.11 331.98 298.29 331.11 302.88 332.19C302.81 341.32 302.73 350.46 302.66 359.59C292.67 361.92 278.94 358.03 269.41 355.03C229.71 342.53 203.69 297.71 215.3 256.88C215.09 256.59 214.88 256.31 214.67 256.02ZM367.88 230.37C360.4 235.21 352.92 240.05 345.43 244.89C343.15 243.82 341.84 240.96 339.99 239.23C335.61 235.13 331.04 230.69 325.53 228.13C319.64 225.4 313.59 222.89 307.08 222.01C302.03 221.33 296.4 222.33 291.55 221.23C291.55 212.21 291.55 203.18 291.55 194.16C314.98 191.38 337.81 200.96 355.37 215.62C358.83 218.5 367.38 225.82 367.88 230.37ZM314.67 270.92C320.14 270.92 325.62 270.92 331.1 270.93C341.72 270.93 352.35 270.92 362.97 270.92C367.11 270.92 371.25 270.92 375.39 270.92C377.44 272.1 376.29 276.71 376.16 278.77C375.67 286.35 374.98 293.73 372.91 301.05C366.42 323.96 351.91 343.63 329.55 353.1C324.84 355.09 317.46 359.25 312.25 357.76C312.35 348.41 312.45 339.07 312.56 329.72C315.65 328.28 318.96 327.52 321.91 325.78C331.12 320.36 343.28 308.57 344.99 297.49C324.31 297.18 303.64 296.88 282.97 296.58C285.46 290.99 293.14 274.47 298.39 272.08C303.4 269.79 309.4 271.78 314.67 270.92Z" fill="#862A51" fill-rule="evenodd" stroke="#862A51" stroke-width="0.25" stroke-linejoin="round"/>
  <path d="M135.96 176.26C135.96 221.77 135.96 267.28 135.95 312.79C135.96 267.28 135.96 221.77 135.96 176.26ZM214.67 256.02C198.68 256.03 182.7 256.04 166.71 256.05C182.7 256.04 198.68 256.03 214.67 256.02ZM314.67 270.92C320.14 270.92 325.62 270.92 331.1 270.93C325.62 270.92 320.14 270.92 314.67 270.92ZM362.97 270.92C367.11 270.92 371.25 270.92 375.39 270.92C371.25 270.92 367.11 270.92 362.97 270.92Z" fill="#FFFFFF" fill-rule="evenodd" stroke="#FFFFFF" stroke-width="0.25" stroke-linejoin="round"/>
</svg>